<svg width="20" height="20" viewBox="0 0 20 20" fill="none" xmlns="http://www.w3.org/2000/svg">
<path d="M5.00016 17.5001C4.54183 17.5001 4.14961 17.337 3.8235 17.0109C3.49683 16.6842 3.3335 16.2917 3.3335 15.8334V8.33341C3.3335 8.06953 3.39266 7.81953 3.511 7.58342C3.62877 7.3473 3.79183 7.15286 4.00016 7.00008L9.00016 3.25008C9.15294 3.13897 9.31266 3.05564 9.47933 3.00008C9.646 2.94453 9.81961 2.91675 10.0002 2.91675C10.1807 2.91675 10.3543 2.94453 10.521 3.00008C10.6877 3.05564 10.8474 3.13897 11.0002 3.25008L16.0002 7.00008C16.2085 7.15286 16.3718 7.3473 16.4902 7.58342C16.6079 7.81953 16.6668 8.06953 16.6668 8.33341V15.8334C16.6668 16.2917 16.5038 16.6842 16.1777 17.0109C15.851 17.337 15.4585 17.5001 15.0002 17.5001H11.6668V11.6667H8.3335V17.5001H5.00016Z" fill="#111111"/>
</svg>
